<svg xmlns="http://www.w3.org/2000/svg" viewBox="0 0 156.92 70.11"><defs><style>.cls-1{fill:#c62828;}.cls-2{fill:#ff2500;}.cls-3{stroke:#fff;stroke-miterlimit:10;stroke-width:0.5px;}</style></defs><title>Asset 52</title><g id="Layer_2" data-name="Layer 2"><g id="gauge"><ellipse class="cls-1" cx="78.07" cy="37.05" rx="10.34" ry="5.81" transform="translate(-5.68 15.77) rotate(-11.13)"/><path class="cls-1" d="M123.9,29.29h0c0,.21.07.43.1.65.06.53.1,1,.11,1.49h0l18-1.73c0-.11,0-.21,0-.33a10.29,10.29,0,0,0-.41-2.28Z"/><path class="cls-1" d="M142,33.14a17.93,17.93,0,0,0,.14-2.2l-18,1.4c0,.52,0,1.1-.11,1.71Z"/><path class="cls-2" d="M47.18,67.91q1.4.16,2.82.3Z"/><path class="cls-1" d="M126,0,116,7.07c.53.15,1,.32,1.56.48Z"/><path class="cls-1" d="M106.21,14,85.56,28.62A46.81,46.81,0,0,0,90.68,31c.35,0,9.57-8.06,18.51-16l-1.25-.41C107.39,14.43,106.81,14.22,106.21,14Z"/><path class="cls-1" d="M117.6,7.55,109.19,15c7.48,2.62,13,7.59,14.5,13.37l17.65-2.48C138.72,17.91,130,11.46,117.6,7.55Z"/><path class="cls-1" d="M75.47,4.05C46.55,7,13.13,26.11,15.33,42.27,17,54.8,40,64.58,69.18,67.91,44,65,25.29,54.74,24.08,43.48,22.65,30.19,48.89,13.81,72.75,10.55A73.17,73.17,0,0,1,106.21,14L116,7.07C104.71,3.76,90.57,2.52,75.47,4.05Z"/><path class="cls-2" d="M140.66,38.07l.06-.16Z"/><path class="cls-1" d="M123.07,37.69a8.39,8.39,0,0,1-2,2.8c-2.43,2.22-5.49,2.18-5.48,2.43s5.09.54,22.13.16a24.44,24.44,0,0,0,2.89-5Z"/><path class="cls-2" d="M123.43,36.77c0,.07-.05.14-.07.21"/><path class="cls-1" d="M123.36,37l17.81-.28a18.41,18.41,0,0,0,.66-2.47l-18,.81a13.71,13.71,0,0,1-.44,1.73"/><path class="cls-3" d="M9.53,45.6v2.15H6.25v9.53H3.54V47.75H.25V45.6Z"/><path class="cls-3" d="M12.61,48.84a4.27,4.27,0,0,1,1.51.25,3.22,3.22,0,0,1,1.18.75,3.31,3.31,0,0,1,.77,1.2,4.47,4.47,0,0,1,.28,1.6,2.86,2.86,0,0,1,0,.46.55.55,0,0,1-.09.28.35.35,0,0,1-.17.15,1,1,0,0,1-.28,0H11a2.38,2.38,0,0,0,.63,1.51,1.93,1.93,0,0,0,1.33.47,2.31,2.31,0,0,0,.74-.11,3.26,3.26,0,0,0,.56-.23L14.7,55a1,1,0,0,1,.43-.11.52.52,0,0,1,.45.22l.72.89a3.82,3.82,0,0,1-1.75,1.15,5.22,5.22,0,0,1-.93.22,7.15,7.15,0,0,1-.9.06,4.68,4.68,0,0,1-1.64-.29,3.76,3.76,0,0,1-1.33-.84,3.9,3.9,0,0,1-.91-1.4,5.22,5.22,0,0,1-.33-1.94,4.42,4.42,0,0,1,.28-1.58,3.83,3.83,0,0,1,.82-1.3,3.72,3.72,0,0,1,1.29-.89A4.21,4.21,0,0,1,12.61,48.84Zm.05,1.71a1.51,1.51,0,0,0-1.12.41A2.12,2.12,0,0,0,11,52.12h3.1a2.18,2.18,0,0,0-.08-.57,1.24,1.24,0,0,0-.25-.5,1.16,1.16,0,0,0-.45-.36A1.55,1.55,0,0,0,12.66,50.55Z"/><path class="cls-3" d="M23.51,57.28a1.09,1.09,0,0,1-.53-.1.73.73,0,0,1-.3-.4l-.18-.46a7.15,7.15,0,0,1-.6.47,3.56,3.56,0,0,1-.6.34,3.3,3.3,0,0,1-.65.21,4.61,4.61,0,0,1-.78.07,3.33,3.33,0,0,1-1-.15,2.25,2.25,0,0,1-.79-.44,1.87,1.87,0,0,1-.5-.72,2.57,2.57,0,0,1-.18-1,2.08,2.08,0,0,1,.23-.91,2.27,2.27,0,0,1,.77-.85,4.79,4.79,0,0,1,1.5-.64,9.11,9.11,0,0,1,2.36-.26V52.1a1.57,1.57,0,0,0-.3-1.07,1.1,1.1,0,0,0-.85-.33,2.42,2.42,0,0,0-.73.1,4.68,4.68,0,0,0-.5.22,4.25,4.25,0,0,1-.43.21,1.07,1.07,0,0,1-.49.1.78.78,0,0,1-.44-.12.91.91,0,0,1-.28-.31l-.45-.78a5.17,5.17,0,0,1,1.67-1,5.77,5.77,0,0,1,2-.32,3.61,3.61,0,0,1,1.35.24,2.85,2.85,0,0,1,1,.68,3,3,0,0,1,.65,1,3.71,3.71,0,0,1,.22,1.31v5.2Zm-2.85-1.52a1.86,1.86,0,0,0,.84-.17,2.58,2.58,0,0,0,.73-.54V53.91A6,6,0,0,0,21,54a2.72,2.72,0,0,0-.76.24,1,1,0,0,0-.39.33.84.84,0,0,0-.11.41.7.7,0,0,0,.24.6A1.08,1.08,0,0,0,20.66,55.76Z"/><path class="cls-3" d="M26.41,57.28V49H28a.67.67,0,0,1,.39.1.51.51,0,0,1,.22.31l.14.45a5.36,5.36,0,0,1,.43-.4,2.71,2.71,0,0,1,.49-.31,2.49,2.49,0,0,1,.56-.21,2.73,2.73,0,0,1,.66-.07,1.92,1.92,0,0,1,1.24.39,2.34,2.34,0,0,1,.75,1,2.53,2.53,0,0,1,.51-.65,2.49,2.49,0,0,1,.65-.44,2.69,2.69,0,0,1,.74-.25,3.42,3.42,0,0,1,.77-.08,3.56,3.56,0,0,1,1.27.21,2.42,2.42,0,0,1,.93.62,2.81,2.81,0,0,1,.56,1A4.25,4.25,0,0,1,38.45,52v5.28H36V52c0-.87-.37-1.3-1.11-1.3A1.18,1.18,0,0,0,34,51a1.3,1.3,0,0,0-.33,1v5.28H31.21V52a1.49,1.49,0,0,0-.28-1,1.13,1.13,0,0,0-.83-.29,1.44,1.44,0,0,0-.64.16,2,2,0,0,0-.56.41v6Z"/><path class="cls-3" d="M43,53v4.32H40.31V45.6h3.8a8,8,0,0,1,2.16.26,4,4,0,0,1,1.46.72,2.72,2.72,0,0,1,.82,1.1,3.68,3.68,0,0,1,.26,1.38,3.81,3.81,0,0,1-.15,1.08,3.66,3.66,0,0,1-.46.93,3.29,3.29,0,0,1-.73.76,4.11,4.11,0,0,1-1,.56,2.78,2.78,0,0,1,.51.33,2.18,2.18,0,0,1,.41.49l2.49,4.07H47.41a1,1,0,0,1-1-.52L44.5,53.37a.87.87,0,0,0-.31-.32,1,1,0,0,0-.48-.09Zm0-1.87h1.09a2.86,2.86,0,0,0,.94-.14,1.65,1.65,0,0,0,.64-.39,1.42,1.42,0,0,0,.36-.58,2.36,2.36,0,0,0,.11-.72,1.49,1.49,0,0,0-.5-1.2,2.31,2.31,0,0,0-1.55-.43H43Z"/><path class="cls-3" d="M54.53,48.84a4.27,4.27,0,0,1,1.51.25,3.22,3.22,0,0,1,1.18.75A3.31,3.31,0,0,1,58,51a4.26,4.26,0,0,1,.28,1.6,2.86,2.86,0,0,1,0,.46.66.66,0,0,1-.08.28.43.43,0,0,1-.18.15,1,1,0,0,1-.27,0h-4.8a2.33,2.33,0,0,0,.64,1.51,1.89,1.89,0,0,0,1.32.47,2.26,2.26,0,0,0,.74-.11,3.26,3.26,0,0,0,.56-.23l.45-.23a1,1,0,0,1,.43-.11.52.52,0,0,1,.45.22l.72.89a4,4,0,0,1-.83.72,4.42,4.42,0,0,1-.91.43,5.54,5.54,0,0,1-.94.22,7,7,0,0,1-.9.06A4.72,4.72,0,0,1,53,57.12a3.76,3.76,0,0,1-1.33-.84,3.9,3.9,0,0,1-.91-1.4,5.22,5.22,0,0,1-.33-1.94,4.42,4.42,0,0,1,.28-1.58,3.83,3.83,0,0,1,.82-1.3,3.72,3.72,0,0,1,1.29-.89A4.24,4.24,0,0,1,54.53,48.84Zm0,1.71a1.47,1.47,0,0,0-1.11.41,2.06,2.06,0,0,0-.53,1.16H56a2.18,2.18,0,0,0-.08-.57,1.24,1.24,0,0,0-.25-.5,1.16,1.16,0,0,0-.45-.36A1.55,1.55,0,0,0,54.58,50.55Z"/><path class="cls-3" d="M64,57.28H61.71L58.49,49h2.07a.76.76,0,0,1,.44.12.57.57,0,0,1,.25.31l1.15,3.73c.1.3.18.6.26.89a8.33,8.33,0,0,1,.22.86c.06-.29.13-.58.21-.86s.18-.59.28-.89l1.2-3.73a.6.6,0,0,1,.24-.31.74.74,0,0,1,.42-.12h2Z"/><path class="cls-3" d="M72.84,57.28H70.58L67.36,49h2.07a.78.78,0,0,1,.44.12.68.68,0,0,1,.25.31l1.15,3.73c.09.3.18.6.26.89s.15.57.21.86A8.33,8.33,0,0,1,72,54c.08-.29.17-.59.27-.89l1.2-3.73a.73.73,0,0,1,.24-.31.74.74,0,0,1,.42-.12h2Z"/><path class="cls-3" d="M80.34,48.84a4.27,4.27,0,0,1,1.51.25,3.22,3.22,0,0,1,1.18.75A3.31,3.31,0,0,1,83.8,51a4.26,4.26,0,0,1,.28,1.6,2.86,2.86,0,0,1,0,.46.66.66,0,0,1-.08.28.38.38,0,0,1-.18.15,1,1,0,0,1-.27,0h-4.8a2.33,2.33,0,0,0,.64,1.51,1.89,1.89,0,0,0,1.32.47,2.37,2.37,0,0,0,.75-.11,3.5,3.5,0,0,0,.55-.23l.45-.23a1,1,0,0,1,.43-.11.52.52,0,0,1,.45.22L84,56a4,4,0,0,1-.83.72,4.42,4.42,0,0,1-.91.43,5.54,5.54,0,0,1-.94.22,7,7,0,0,1-.9.06,4.62,4.62,0,0,1-1.63-.29,3.8,3.8,0,0,1-1.34-.84,4,4,0,0,1-.91-1.4,5.22,5.22,0,0,1-.33-1.94,4.42,4.42,0,0,1,.28-1.58,4,4,0,0,1,.82-1.3,3.92,3.92,0,0,1,1.29-.89A4.27,4.27,0,0,1,80.34,48.84Zm0,1.71a1.49,1.49,0,0,0-1.11.41,2.06,2.06,0,0,0-.53,1.16h3.1a2.18,2.18,0,0,0-.08-.57,1.37,1.37,0,0,0-.24-.5,1.27,1.27,0,0,0-.46-.36A1.55,1.55,0,0,0,80.39,50.55Z"/><path class="cls-3" d="M91.34,57.28a.71.71,0,0,1-.39-.11.55.55,0,0,1-.22-.31l-.19-.63c-.17.17-.34.33-.52.48a3.25,3.25,0,0,1-.59.37,2.62,2.62,0,0,1-.68.24,3.35,3.35,0,0,1-.79.09,2.56,2.56,0,0,1-1.2-.29,2.73,2.73,0,0,1-1-.84A4,4,0,0,1,85.17,55a6.61,6.61,0,0,1-.23-1.8,5.65,5.65,0,0,1,.26-1.73A4.14,4.14,0,0,1,85.93,50a3.41,3.41,0,0,1,1.12-.91,3.18,3.18,0,0,1,1.45-.32,2.93,2.93,0,0,1,1.09.18,3.22,3.22,0,0,1,.81.5V45.28h2.48v12ZM88.82,55.5a2.49,2.49,0,0,0,.5,0,2.37,2.37,0,0,0,.4-.15,2.71,2.71,0,0,0,.35-.24,3.58,3.58,0,0,0,.33-.34V51.19a1.75,1.75,0,0,0-1.3-.56,1.53,1.53,0,0,0-.64.14,1.3,1.3,0,0,0-.5.44,2.35,2.35,0,0,0-.33.78,4.87,4.87,0,0,0-.12,1.16,5,5,0,0,0,.1,1.11,2.22,2.22,0,0,0,.26.72,1.06,1.06,0,0,0,.42.4A1.18,1.18,0,0,0,88.82,55.5Z"/><path class="cls-3" d="M99.76,55.14a2.5,2.5,0,0,0,1-.18,1.91,1.91,0,0,0,.72-.52,2.33,2.33,0,0,0,.46-.82,3.7,3.7,0,0,0,.15-1.1V45.6h2.71v6.92a5.47,5.47,0,0,1-.34,2,4.37,4.37,0,0,1-2.58,2.56,6.28,6.28,0,0,1-4.19,0,4.51,4.51,0,0,1-1.58-1,4.36,4.36,0,0,1-1-1.55,5.47,5.47,0,0,1-.34-2V45.6h2.71v6.91a3.7,3.7,0,0,0,.15,1.1,2.47,2.47,0,0,0,.46.83,2,2,0,0,0,.72.52A2.52,2.52,0,0,0,99.76,55.14Z"/><path class="cls-3" d="M106.54,59.92V49h1.54a.71.71,0,0,1,.39.1.61.61,0,0,1,.22.31l.18.61a3.37,3.37,0,0,1,.52-.48,3.25,3.25,0,0,1,.59-.37,3.06,3.06,0,0,1,.68-.25,3.39,3.39,0,0,1,.8-.08,2.58,2.58,0,0,1,1.2.28,2.83,2.83,0,0,1,1,.84,4.31,4.31,0,0,1,.62,1.33,6.21,6.21,0,0,1,.23,1.79,5.38,5.38,0,0,1-.26,1.74,4.19,4.19,0,0,1-.73,1.37,3.31,3.31,0,0,1-1.12.92,3.19,3.19,0,0,1-1.45.33,2.67,2.67,0,0,1-1.89-.69v3.2Zm4-9.22a1.88,1.88,0,0,0-.49.06,1.44,1.44,0,0,0-.41.15,1.56,1.56,0,0,0-.35.24c-.1.1-.21.21-.32.34V55a1.52,1.52,0,0,0,.61.43,1.8,1.8,0,0,0,.69.13,1.46,1.46,0,0,0,.63-.14,1.3,1.3,0,0,0,.51-.43,2.41,2.41,0,0,0,.33-.79,4.9,4.9,0,0,0,.12-1.17,5,5,0,0,0-.1-1.1,2.14,2.14,0,0,0-.27-.73,1,1,0,0,0-.41-.39A1.08,1.08,0,0,0,110.59,50.7Z"/><path d="M55.79,66.81a.2.2,0,0,1,.14.06l.38.42a3,3,0,0,1-1.07.79,3.6,3.6,0,0,1-1.51.29,3.53,3.53,0,0,1-1.4-.27,3.18,3.18,0,0,1-1.08-.75,3.44,3.44,0,0,1-.69-1.16,4.38,4.38,0,0,1-.24-1.48,4,4,0,0,1,.26-1.49,3.25,3.25,0,0,1,.74-1.16,3.29,3.29,0,0,1,1.13-.75A3.89,3.89,0,0,1,53.92,61a3.34,3.34,0,0,1,1.36.25,3.44,3.44,0,0,1,1,.66L56,62.4a.3.3,0,0,1-.08.08.23.23,0,0,1-.13,0,.3.3,0,0,1-.14,0l-.17-.11-.23-.15a1.35,1.35,0,0,0-.32-.15,2.43,2.43,0,0,0-.43-.12,3.18,3.18,0,0,0-.57,0,2.77,2.77,0,0,0-1,.2,2.35,2.35,0,0,0-.82.56,2.56,2.56,0,0,0-.54.89,3.36,3.36,0,0,0-.19,1.18,3.42,3.42,0,0,0,.19,1.19,2.68,2.68,0,0,0,.52.89,2.4,2.4,0,0,0,.79.55,2.45,2.45,0,0,0,1,.19,3.37,3.37,0,0,0,.58,0,2.31,2.31,0,0,0,.47-.11,2.52,2.52,0,0,0,.4-.21,2.55,2.55,0,0,0,.38-.29A.25.25,0,0,1,55.79,66.81Z"/><path d="M61.17,68.29h-.4a.6.6,0,0,1-.21,0,.23.23,0,0,1-.1-.17l-.1-.47-.39.32a3.26,3.26,0,0,1-.4.24,3,3,0,0,1-.45.15,2.81,2.81,0,0,1-.53.05,1.63,1.63,0,0,1-.55-.09,1.19,1.19,0,0,1-.75-.66,1.4,1.4,0,0,1-.11-.6,1.08,1.08,0,0,1,.16-.58,1.51,1.51,0,0,1,.53-.5,3.61,3.61,0,0,1,1-.35,6.59,6.59,0,0,1,1.45-.14v-.4a1.4,1.4,0,0,0-.25-.9.93.93,0,0,0-.75-.3,1.77,1.77,0,0,0-.55.08,2.69,2.69,0,0,0-.38.19l-.28.18a.4.4,0,0,1-.23.09.28.28,0,0,1-.16,0,.32.32,0,0,1-.11-.12l-.16-.28a2.8,2.8,0,0,1,.91-.61,2.83,2.83,0,0,1,1.07-.2,2,2,0,0,1,.76.14,1.45,1.45,0,0,1,.55.39,1.72,1.72,0,0,1,.34.61,2.37,2.37,0,0,1,.12.78Zm-2.31-.55a1.49,1.49,0,0,0,.43,0,1.4,1.4,0,0,0,.36-.13,1.85,1.85,0,0,0,.33-.21,2.81,2.81,0,0,0,.31-.29V66a6.14,6.14,0,0,0-1,.07,2.93,2.93,0,0,0-.7.21,1.06,1.06,0,0,0-.4.29A.69.69,0,0,0,58,67a.71.71,0,0,0,.07.34.61.61,0,0,0,.17.24.72.72,0,0,0,.26.14A1.15,1.15,0,0,0,58.86,67.74Z"/><path d="M62.52,68.29V63.22H63a.28.28,0,0,1,.2.06.34.34,0,0,1,.07.19l.06.79a2.3,2.3,0,0,1,.64-.83,1.44,1.44,0,0,1,.9-.3,1.46,1.46,0,0,1,.38,0,1.27,1.27,0,0,1,.32.13l-.12.67a.14.14,0,0,1-.15.12.91.91,0,0,1-.22,0,1.45,1.45,0,0,0-.4,0,1.16,1.16,0,0,0-.78.27,2,2,0,0,0-.52.78v3.23Z"/><path d="M66.55,70V63.22h.53a.23.23,0,0,1,.24.19l.07.6a2.77,2.77,0,0,1,.74-.64,1.91,1.91,0,0,1,1-.24,1.86,1.86,0,0,1,.79.17,1.65,1.65,0,0,1,.6.49,2.32,2.32,0,0,1,.39.82A4.13,4.13,0,0,1,71,65.72a3.49,3.49,0,0,1-.15,1,2.57,2.57,0,0,1-.43.84,2,2,0,0,1-.69.55,1.94,1.94,0,0,1-.91.21A2,2,0,0,1,68,68.2a1.75,1.75,0,0,1-.58-.44V70Zm2.25-6.15a1.46,1.46,0,0,0-.76.2,2,2,0,0,0-.6.57v2.45a1.41,1.41,0,0,0,.53.46,1.59,1.59,0,0,0,.66.14,1.26,1.26,0,0,0,1.08-.51,2.33,2.33,0,0,0,.38-1.44,3.52,3.52,0,0,0-.09-.85,1.48,1.48,0,0,0-.25-.58,1,1,0,0,0-.4-.33A1.35,1.35,0,0,0,68.8,63.85Z"/><path d="M74.07,63.14a2.32,2.32,0,0,1,.84.15,1.91,1.91,0,0,1,.67.44,2.11,2.11,0,0,1,.43.71,2.7,2.7,0,0,1,.16,1,.61.61,0,0,1,0,.28.21.21,0,0,1-.17.07H72.59a2.58,2.58,0,0,0,.13.83,1.68,1.68,0,0,0,.33.59,1.28,1.28,0,0,0,.5.36,1.67,1.67,0,0,0,.65.12,1.91,1.91,0,0,0,.57-.08,2.43,2.43,0,0,0,.42-.17,2.24,2.24,0,0,0,.29-.17.4.4,0,0,1,.21-.07.19.19,0,0,1,.17.08l.25.33a1.89,1.89,0,0,1-.4.34,2.82,2.82,0,0,1-.49.25,3.58,3.58,0,0,1-.54.14,3.64,3.64,0,0,1-.56,0,2.58,2.58,0,0,1-1-.18,2.1,2.1,0,0,1-.76-.52,2.31,2.31,0,0,1-.5-.85,3.45,3.45,0,0,1-.18-1.16,2.94,2.94,0,0,1,.16-1,2.29,2.29,0,0,1,.47-.8,2.22,2.22,0,0,1,.74-.53A2.4,2.4,0,0,1,74.07,63.14Zm0,.66a1.34,1.34,0,0,0-1,.37,1.73,1.73,0,0,0-.46,1h2.75a2.07,2.07,0,0,0-.08-.57,1.26,1.26,0,0,0-.25-.44,1.09,1.09,0,0,0-.41-.29A1.27,1.27,0,0,0,74.09,63.8Z"/><path d="M78.84,68.37a1.22,1.22,0,0,1-.92-.34,1.3,1.3,0,0,1-.32-1V64H77a.22.22,0,0,1-.14,0,.17.17,0,0,1,0-.15v-.35l.83-.11.2-1.56a.21.21,0,0,1,.07-.13.2.2,0,0,1,.14,0h.45v1.74h1.45V64H78.49v3a.65.65,0,0,0,.15.47.56.56,0,0,0,.4.16.8.8,0,0,0,.24,0l.18-.08.13-.09a.16.16,0,0,1,.09,0,.15.15,0,0,1,.13.08l.26.43a1.73,1.73,0,0,1-.56.33A2,2,0,0,1,78.84,68.37Z"/><path d="M86.69,68.29h-.4a.56.56,0,0,1-.21,0,.23.23,0,0,1-.1-.17l-.1-.47-.39.32a3.26,3.26,0,0,1-.4.24,3,3,0,0,1-.45.15,2.89,2.89,0,0,1-.53.05,1.63,1.63,0,0,1-.55-.09,1.24,1.24,0,0,1-.45-.25,1.12,1.12,0,0,1-.3-.41,1.4,1.4,0,0,1-.11-.6,1.08,1.08,0,0,1,.16-.58,1.51,1.51,0,0,1,.53-.5,3.61,3.61,0,0,1,1-.35,6.59,6.59,0,0,1,1.45-.14v-.4a1.4,1.4,0,0,0-.25-.9.93.93,0,0,0-.75-.3,1.73,1.73,0,0,0-.55.08,2.24,2.24,0,0,0-.38.19l-.28.18a.4.4,0,0,1-.23.09.28.28,0,0,1-.16,0,.32.32,0,0,1-.11-.12l-.16-.28a2.8,2.8,0,0,1,.91-.61,2.83,2.83,0,0,1,1.07-.2,2,2,0,0,1,.76.14,1.45,1.45,0,0,1,.55.39,1.72,1.72,0,0,1,.34.61,2.37,2.37,0,0,1,.12.78Zm-2.31-.55a1.49,1.49,0,0,0,.43,0,1.4,1.4,0,0,0,.36-.13,1.85,1.85,0,0,0,.33-.21,2.81,2.81,0,0,0,.31-.29V66a6.14,6.14,0,0,0-1,.07,2.93,2.93,0,0,0-.7.21,1.06,1.06,0,0,0-.4.29.69.69,0,0,0-.12.39.71.71,0,0,0,.07.34.61.61,0,0,0,.17.24.72.72,0,0,0,.26.14A1.15,1.15,0,0,0,84.38,67.74Z"/><path d="M88,68.29V63.22h.53a.23.23,0,0,1,.24.19l.07.55a2.71,2.71,0,0,1,.73-.59,1.94,1.94,0,0,1,1-.23,1.86,1.86,0,0,1,.73.14,1.38,1.38,0,0,1,.53.39,1.69,1.69,0,0,1,.32.61,2.67,2.67,0,0,1,.11.78v3.23h-.89V65.06a1.39,1.39,0,0,0-.26-.89,1,1,0,0,0-.8-.32,1.46,1.46,0,0,0-.74.19,2.36,2.36,0,0,0-.63.52v3.73Z"/><path d="M97.16,68.29a.23.23,0,0,1-.24-.19l-.08-.61a2.76,2.76,0,0,1-.74.63,1.9,1.9,0,0,1-1,.24,1.86,1.86,0,0,1-.79-.17,1.59,1.59,0,0,1-.6-.49,2.35,2.35,0,0,1-.39-.81,4.25,4.25,0,0,1-.13-1.12,3.49,3.49,0,0,1,.15-1,2.57,2.57,0,0,1,.43-.84,2,2,0,0,1,1.61-.76,1.74,1.74,0,0,1,.79.16,1.79,1.79,0,0,1,.59.44V60.92h.89v7.37Zm-1.72-.65a1.46,1.46,0,0,0,.76-.2,2.3,2.3,0,0,0,.6-.57V64.42a1.36,1.36,0,0,0-.54-.46,1.5,1.5,0,0,0-.64-.13,1.26,1.26,0,0,0-1.09.5,2.33,2.33,0,0,0-.38,1.44,3.56,3.56,0,0,0,.08.85,1.72,1.72,0,0,0,.25.58,1,1,0,0,0,.41.33A1.35,1.35,0,0,0,95.44,67.64Z"/><path d="M106.13,61.12v.82h-2.31v6.35h-1V61.94h-2.32v-.82Z"/><path d="M108.21,61.63a.48.48,0,0,1-.06.24.48.48,0,0,1-.14.2.56.56,0,0,1-.2.14.7.7,0,0,1-.25,0,.69.69,0,0,1-.24,0,.66.66,0,0,1-.2-.14.46.46,0,0,1-.13-.2.48.48,0,0,1-.06-.24.54.54,0,0,1,.06-.25.63.63,0,0,1,.13-.2.66.66,0,0,1,.2-.14.69.69,0,0,1,.24,0,.7.7,0,0,1,.25,0,.56.56,0,0,1,.2.14.66.66,0,0,1,.14.2A.54.54,0,0,1,108.21,61.63Zm-.2,1.59v5.07h-.89V63.22Z"/><path d="M110.56,60.92v7.37h-.89V60.92Z"/><path d="M114.14,63.14a2.32,2.32,0,0,1,.84.15,1.78,1.78,0,0,1,.66.44,2,2,0,0,1,.44.71,2.7,2.7,0,0,1,.16,1,.58.58,0,0,1,0,.28.2.2,0,0,1-.17.07h-3.37a2.89,2.89,0,0,0,.13.83,1.68,1.68,0,0,0,.33.59,1.36,1.36,0,0,0,.5.36,1.71,1.71,0,0,0,.65.12,1.93,1.93,0,0,0,.58-.08,2.81,2.81,0,0,0,.42-.17,3.22,3.22,0,0,0,.29-.17.4.4,0,0,1,.2-.07.18.18,0,0,1,.17.08l.25.33a1.83,1.83,0,0,1-.39.34,2.82,2.82,0,0,1-.49.25,3.53,3.53,0,0,1-1.1.19,2.58,2.58,0,0,1-1-.18,2.1,2.1,0,0,1-.76-.52,2.33,2.33,0,0,1-.51-.85,3.45,3.45,0,0,1-.18-1.16,2.94,2.94,0,0,1,.17-1,2.43,2.43,0,0,1,.46-.8,2.37,2.37,0,0,1,.75-.53A2.4,2.4,0,0,1,114.14,63.14Zm0,.66a1.38,1.38,0,0,0-1,.37,1.79,1.79,0,0,0-.46,1h2.76a1.75,1.75,0,0,0-.09-.57,1.12,1.12,0,0,0-.25-.44,1.06,1.06,0,0,0-.4-.29A1.33,1.33,0,0,0,114.16,63.8Z"/><path d="M124.49,66.81a.2.2,0,0,1,.15.06l.38.42a3,3,0,0,1-1.07.79,3.63,3.63,0,0,1-1.51.29A3.55,3.55,0,0,1,121,68.1a3.14,3.14,0,0,1-1.07-.75,3.28,3.28,0,0,1-.69-1.16,4.38,4.38,0,0,1-.25-1.48,4,4,0,0,1,.27-1.49,3.37,3.37,0,0,1,.73-1.16,3.43,3.43,0,0,1,1.14-.75,3.83,3.83,0,0,1,1.46-.27,3.35,3.35,0,0,1,1.37.25,3.27,3.27,0,0,1,1,.66l-.31.45a.3.3,0,0,1-.08.08.23.23,0,0,1-.13,0,.3.3,0,0,1-.14,0l-.17-.11-.24-.15a1.19,1.19,0,0,0-.32-.15,2,2,0,0,0-.43-.12,3.06,3.06,0,0,0-.56,0,2.73,2.73,0,0,0-1.05.2,2.39,2.39,0,0,0-.83.56,2.54,2.54,0,0,0-.53.89,3.36,3.36,0,0,0-.2,1.18,3.41,3.41,0,0,0,.2,1.19,2.68,2.68,0,0,0,.52.89,2.3,2.3,0,0,0,.79.55,2.45,2.45,0,0,0,1,.19,3.32,3.32,0,0,0,.57,0,2.4,2.4,0,0,0,.48-.11,2.52,2.52,0,0,0,.4-.21,3.2,3.2,0,0,0,.38-.29A.25.25,0,0,1,124.49,66.81Z"/><path d="M127.14,60.92v7.37h-.89V60.92Z"/><path d="M130.72,63.14a2.32,2.32,0,0,1,.84.15,1.78,1.78,0,0,1,.66.44,2,2,0,0,1,.44.71,2.7,2.7,0,0,1,.16,1,.58.58,0,0,1,0,.28.2.2,0,0,1-.17.07h-3.37a2.89,2.89,0,0,0,.13.83,1.68,1.68,0,0,0,.33.59,1.36,1.36,0,0,0,.5.36,1.71,1.71,0,0,0,.65.12,1.93,1.93,0,0,0,.58-.08,2.81,2.81,0,0,0,.42-.17,3.22,3.22,0,0,0,.29-.17.4.4,0,0,1,.2-.07.18.18,0,0,1,.17.08l.25.33a1.83,1.83,0,0,1-.39.34,2.82,2.82,0,0,1-.49.25,3.53,3.53,0,0,1-1.1.19,2.58,2.58,0,0,1-1-.18,2.1,2.1,0,0,1-.76-.52,2.33,2.33,0,0,1-.51-.85,3.45,3.45,0,0,1-.18-1.16,2.94,2.94,0,0,1,.17-1,2.14,2.14,0,0,1,1.21-1.33A2.4,2.4,0,0,1,130.72,63.14Zm0,.66a1.38,1.38,0,0,0-1,.37,1.79,1.79,0,0,0-.46,1H132a1.75,1.75,0,0,0-.09-.57,1.12,1.12,0,0,0-.25-.44,1.06,1.06,0,0,0-.4-.29A1.33,1.33,0,0,0,130.74,63.8Z"/><path d="M137.67,68.29h-.39a.56.56,0,0,1-.21,0,.27.27,0,0,1-.11-.17l-.1-.47c-.13.12-.26.22-.39.32a2.65,2.65,0,0,1-.4.24,3.26,3.26,0,0,1-.44.15,2.89,2.89,0,0,1-.53.05,1.63,1.63,0,0,1-.55-.09,1.17,1.17,0,0,1-.45-.25,1.12,1.12,0,0,1-.3-.41,1.4,1.4,0,0,1-.12-.6,1.09,1.09,0,0,1,.17-.58,1.51,1.51,0,0,1,.53-.5,3.66,3.66,0,0,1,1-.35,6.75,6.75,0,0,1,1.46-.14v-.4a1.4,1.4,0,0,0-.25-.9.93.93,0,0,0-.75-.3,1.73,1.73,0,0,0-.55.08,1.92,1.92,0,0,0-.38.19l-.28.18a.4.4,0,0,1-.24.09.25.25,0,0,1-.15,0,.32.32,0,0,1-.11-.12l-.16-.28a2.87,2.87,0,0,1,.9-.61,2.92,2.92,0,0,1,1.08-.2,2,2,0,0,1,.75.14,1.49,1.49,0,0,1,.56.39,1.72,1.72,0,0,1,.34.61,2.37,2.37,0,0,1,.11.78Zm-2.31-.55a1.45,1.45,0,0,0,.43,0,1.47,1.47,0,0,0,.37-.13,1.85,1.85,0,0,0,.33-.21,2.81,2.81,0,0,0,.31-.29V66a6.35,6.35,0,0,0-1.05.07,3.08,3.08,0,0,0-.7.21,1,1,0,0,0-.39.29.69.69,0,0,0-.12.39.86.86,0,0,0,.06.34.76.76,0,0,0,.18.24.72.72,0,0,0,.26.14A1.12,1.12,0,0,0,135.36,67.74Z"/><path d="M139,68.29V63.22h.53a.22.22,0,0,1,.24.19l.07.55a2.75,2.75,0,0,1,.74-.59,2,2,0,0,1,1.68-.09,1.38,1.38,0,0,1,.53.39,1.69,1.69,0,0,1,.32.61,2.67,2.67,0,0,1,.11.78v3.23h-.89V65.06a1.39,1.39,0,0,0-.26-.89,1,1,0,0,0-.81-.32,1.42,1.42,0,0,0-.73.19,2.57,2.57,0,0,0-.64.52v3.73Z"/><path d="M145.77,61.63a.47.47,0,0,1-.05.24.48.48,0,0,1-.14.2.56.56,0,0,1-.2.14.7.7,0,0,1-.25,0,.69.69,0,0,1-.24,0,.66.66,0,0,1-.2-.14.6.6,0,0,1-.14-.2.6.6,0,0,1-.05-.24.7.7,0,0,1,.05-.25.9.9,0,0,1,.14-.2.66.66,0,0,1,.2-.14.69.69,0,0,1,.24,0,.7.7,0,0,1,.25,0,.56.56,0,0,1,.2.14.66.66,0,0,1,.14.2A.53.53,0,0,1,145.77,61.63Zm-.2,1.59v5.07h-.89V63.22Z"/><path d="M147.14,68.29V63.22h.53a.22.22,0,0,1,.24.19L148,64a2.75,2.75,0,0,1,.74-.59,2,2,0,0,1,1.68-.09,1.46,1.46,0,0,1,.53.39,1.86,1.86,0,0,1,.32.61,2.67,2.67,0,0,1,.11.78v3.23h-.89V65.06a1.39,1.39,0,0,0-.26-.89,1,1,0,0,0-.81-.32,1.42,1.42,0,0,0-.73.19,2.57,2.57,0,0,0-.64.52v3.73Z"/><path d="M154.41,63.14a2.51,2.51,0,0,1,.62.07,2.18,2.18,0,0,1,.52.21h1.37v.33q0,.16-.21.21l-.57.08a1.6,1.6,0,0,1,.17.73,1.64,1.64,0,0,1-.14.67,1.68,1.68,0,0,1-.4.52,1.93,1.93,0,0,1-.6.33,2.63,2.63,0,0,1-.76.11,2.86,2.86,0,0,1-.67-.08.65.65,0,0,0-.24.22.37.37,0,0,0-.09.23.31.31,0,0,0,.15.28.89.89,0,0,0,.38.14,3,3,0,0,0,.55,0h.62a3.18,3.18,0,0,1,.62.06,1.55,1.55,0,0,1,.55.18.92.92,0,0,1,.38.35,1,1,0,0,1,.15.57,1.44,1.44,0,0,1-.16.64,1.75,1.75,0,0,1-.47.55,2.53,2.53,0,0,1-.75.39,3.33,3.33,0,0,1-1,.14,3.93,3.93,0,0,1-1-.11,2.38,2.38,0,0,1-.7-.29,1.38,1.38,0,0,1-.41-.43,1,1,0,0,1-.14-.51.93.93,0,0,1,.24-.64,1.83,1.83,0,0,1,.65-.42.88.88,0,0,1-.34-.26.77.77,0,0,1-.13-.45,1,1,0,0,1,0-.23,1.27,1.27,0,0,1,.12-.23,1.45,1.45,0,0,1,.21-.22,1.12,1.12,0,0,1,.28-.18,1.59,1.59,0,0,1-.59-.56,1.53,1.53,0,0,1-.21-.81,1.65,1.65,0,0,1,.14-.68,1.54,1.54,0,0,1,.4-.51,1.93,1.93,0,0,1,.6-.33A2.45,2.45,0,0,1,154.41,63.14Zm1.58,5.4a.45.45,0,0,0-.11-.31.62.62,0,0,0-.28-.18,2.2,2.2,0,0,0-.42-.09,3.79,3.79,0,0,0-.49,0h-.53a2.25,2.25,0,0,1-.52-.07,1.47,1.47,0,0,0-.46.33.65.65,0,0,0-.18.46.59.59,0,0,0,.09.32.75.75,0,0,0,.27.26,1.57,1.57,0,0,0,.45.17,3,3,0,0,0,.64.06,2.59,2.59,0,0,0,.65-.07,1.5,1.5,0,0,0,.48-.18,1,1,0,0,0,.3-.3A.67.67,0,0,0,156,68.54Zm-1.58-2.73a1.33,1.33,0,0,0,.47-.07.93.93,0,0,0,.35-.21.72.72,0,0,0,.21-.33,1.07,1.07,0,0,0,.07-.41,1,1,0,0,0-.28-.74,1.38,1.38,0,0,0-1.64,0,1,1,0,0,0-.28.74,1.07,1.07,0,0,0,.07.41.93.93,0,0,0,.21.33,1,1,0,0,0,.35.21A1.33,1.33,0,0,0,154.41,65.81Z"/></g></g></svg>