<svg xmlns="http://www.w3.org/2000/svg" viewBox="0 0 182.14 293.43"><defs><style>.cls-1,.cls-3{fill:#fff;}.cls-1,.cls-2,.cls-3,.cls-4,.cls-5{stroke:#000;}.cls-3{stroke-width:2px;}.cls-4{fill:none;}.cls-5{fill:#ffe455;}.cls-6,.cls-8{fill:#c62828;}.cls-6{stroke:#c62828;stroke-miterlimit:10;stroke-width:0.1px;}.cls-7{fill:#ff2500;}</style></defs><title>Asset 28</title><g id="Layer_2" data-name="Layer 2"><g id="gauge"><path class="cls-1" d="M37.74,165.76a201.59,201.59,0,0,0,19.95,18,199.35,199.35,0,0,0,31.19,20.13h0q14.41,7.75,15.19,6.56.42-.63-3.06-3.82c.82.65,1.76,1.44,1.66,1.6-.4.64-15.45-8.11-21.38-11.76-11-6.76-26.29-17.95-43-36.67a2.56,2.56,0,0,0-1.56.85C35.83,161.75,36.12,163.92,37.74,165.76Z"/><path class="cls-2" d="M96.33,111.85l2.32.11c6.57,8.46,8,15.21,8.08,19.88,0,2.87-.43,5.93-.21,12a96,96,0,0,0,1,11l14.7,42a206.36,206.36,0,0,1,13.67,21.95,205.28,205.28,0,0,1,13.25,30.24,16.14,16.14,0,0,1,3.94,4.14c.65,1,2.79,4.28,2.48,7.25-.62,5.9-10.83,9.52-17.39,10.35a30.22,30.22,0,0,1-14.08-1.65l-.42-5.18c6.88-4.42,13.75-9.71,12.67-13-.49-1.48-2.52-1.81-3.14-2.3-20.93-16.49-42-54-42-54a344.7,344.7,0,0,1-26.3-50.74L36.74,160.62,43,208.87,45.82,215a26.21,26.21,0,0,1,1.27,10A26,26,0,0,1,45,233.7H32.7L32.28,231,26,233.7a45.46,45.46,0,0,1-22.25-1.62L.61,229.8q1-2.38,2-4.75l17.3-8.93,3-4.76c-5.32-21.08-9.31-37.66-12.22-48.46-.94-3.49-2.7-9.85.21-15.74,1.22-2.47,3-4.28,6.51-7.78,2.93-2.93,5.61-5.23,7.37-6.68,1.09-.89,1.91-1.54,2.11-1.69,2.71-2.13,9-7.59,23.53-20.76"/><path class="cls-1" d="M70.14,131.86q.92,2.13,1.83,4.37c.56,1.4,1.11,2.78,1.62,4.15l-7.82-.91c-.39-1.82-.79-3.64-1.18-5.47L69,128.75Z"/><path class="cls-1" d="M40.66,103.58c.82.28,1.6.6,2.34.93,2.37,1.1,6.47,3.48,12.54,12.38.46.68.85,1.27.9,1.35a24.9,24.9,0,0,1,1.34,2.46l8.74,1.12c-5.33-9.39-7.17-12.29-7.91-13.32a23,23,0,0,0-2.11-2.15,36.7,36.7,0,0,0-2.78-2.5c-9.46-7.47-23.65-9.92-33.83-4.78a18,18,0,0,0-7.42,6.27c-1.3,2-3.71,6.82-1.49,17.49a56.49,56.49,0,0,0,6.37,16.55L22.06,135a62,62,0,0,1-3.32-8.67c-1.21-4.13-4.29-14,.66-19.81A12,12,0,0,1,24.79,103"/><path class="cls-3" d="M180.66,273.07,141.11,250.5,97.73,194.63,78.2,144.7l11.34,1,11.39-14.91q-.72-2.37-1.45-4.76l-3.19-.41L74.7,122.87l-5.49-.7L63,121.38l-7.25-.93-8.91,17,2.9,4.14L59.31,143l3.25.29,27.6,56,42.66,51.77-30.65,33.75,6,7.46L181.07,278Zm-127.15-135,5.8-11.39,2.13.25,6.55.75,5.44.63,21.25,2.44.66.07L87.47,142Z"/><path class="cls-4" d="M98.24,110.38l.5,1.84-2.33-.11"/><path class="cls-1" d="M53.72,103.85l-1.53-4.06a35.14,35.14,0,0,1-3-6.33C48,89.94,47.84,87.79,47,84.24a58.59,58.59,0,0,0-3.23-9.86,39.36,39.36,0,0,1-9.45,3.46,37.23,37.23,0,0,1-5.32.82,14.32,14.32,0,0,0-2.14-9.1,14.66,14.66,0,0,0-9.3-6.25,74.53,74.53,0,0,0,13-6.18C39.13,52,42.74,47.48,49.88,46.77a20,20,0,0,1,7.86.84,10.89,10.89,0,0,0,5,5.59C68.28,56.05,74,52.19,74.3,52a12.42,12.42,0,0,0,4.46-5.91,38,38,0,0,1,7.55-1.13c3.5-.17,11.45-.55,18.43,3.93,4.94,3.17,7.15,7.33,11.19,14.91a77,77,0,0,1,5.59,13.46,26.89,26.89,0,0,0-24,2.49c-.58-1.76-1.36-4.32-2.07-7.46a112.46,112.46,0,0,1-2.21-14.72,44.58,44.58,0,0,1-.14,14c-.25,1.4-.53,2.57-.76,3.45q.21,7.66.41,15.32,1,3.81,2.11,7.71,2.25,7.89,4.71,15.19l-39.28-2.06A30.15,30.15,0,0,0,57,106.93,31.15,31.15,0,0,0,53.72,103.85Z"/><path class="cls-4" d="M42.42,62.87a20.85,20.85,0,0,0,7.76,20"/><path class="cls-4" d="M83.85,81a20.75,20.75,0,0,0,6.43-6.11c5-7.36,3.35-15.54,2.94-17.37"/><path class="cls-5" d="M71.62,119.79a3,3,0,0,0-1.94,1.79l-.32.59"/><path class="cls-1" d="M29.15,76.74a21.83,21.83,0,0,0-2.52.59c-.69.21-1.33.44-1.9.67Q29,85.19,33.27,92.35c1,.14,2.58.31,4.46.42,4.22.26,5-.08,6.42.56,3.2,1.47,4.55,5.85,3.77,6.56s-2.52-1.45-4.71-.65a3.65,3.65,0,0,0-1.58,1.17l-.13.18a10.46,10.46,0,0,0-1.11,3.4L42,105.36l1.83-.23,1.83,1.18c-.1.17-1.77,2.94-4.46,2.86a4.16,4.16,0,0,1-1.91-.53,2.63,2.63,0,0,1-1.54,2.28,2.57,2.57,0,0,1-2,0A3.52,3.52,0,0,1,33.56,112a3.4,3.4,0,0,1-1.61-.26A2.78,2.78,0,0,1,30.3,113a2.53,2.53,0,0,1-1.5-.16,10.48,10.48,0,0,1-3.69-2.79,54.19,54.19,0,0,1-.2-6.29,52.92,52.92,0,0,1,.43-5.55c-.27-.42-.68-1-1.18-1.78A81.13,81.13,0,0,0,15.51,86c-3.21-3.33-5.95-7.1-9.25-10.35a3.28,3.28,0,0,1-1.18-2.37c.07-1,1-1.73,2.12-2.63C10,68.41,11.44,67.32,12,67a72.21,72.21,0,0,1,6.7-3.63,15.28,15.28,0,0,1,8.15,6.24A15,15,0,0,1,29.15,76.74Z"/><path class="cls-1" d="M70.12,122.28l.51-1.39,1-1.1a3.12,3.12,0,0,1,3.24,2.86L74.29,127c-1,1.82-1.43,2.3-1.65,2.22l-.14-.56-.29-.54-2.44-.27a4.45,4.45,0,0,0,.51,4,4.32,4.32,0,0,0,5.43.88,3.85,3.85,0,0,0,2.46,1.86,4,4,0,0,0,3.47-1,3.76,3.76,0,0,0,6,.54,2.5,2.5,0,0,0,4.33,1l3.47-5.28a22.85,22.85,0,0,0,1.24-6.18c.2-3.31-1.58-4.87-1.3-8a10.55,10.55,0,0,1,1.57-4.59L100,108.9c13.08-10.22,17.82-13.33,19.29-13.81.46-.15,1.35-.55,3.12-1.35,1.22-.54,1.69-.76,2-1.26a3.65,3.65,0,0,0-.12-2.93c-.89-2.37-2.2-6.75-3.91-12.72a26.87,26.87,0,0,0-21.32,1.94q.87,2.15,2,4.46c.82,1.7,1.67,3.28,2.5,4.75l-17.09,19.3-2.65,2.8c-1.12.19-2.76.49-4.72,1a33.17,33.17,0,0,0-8.55,3,16.41,16.41,0,0,0-5,3.68,16.84,16.84,0,0,0-1.1,1.44,15.66,15.66,0,0,0-1.27,2.2Z"/><path class="cls-1" d="M61.59,126.91a20.25,20.25,0,0,0,2,5.38c.35.64.71,1.21,1.07,1.74a3.31,3.31,0,0,0,2-.37,3.2,3.2,0,0,0,1.41-1.73,5.27,5.27,0,0,0,.37-1.47,5.7,5.7,0,0,0-.45-2.8Z"/><path class="cls-4" d="M80.45,122q-.44,3.33-.89,6.67l-3.85,4.12"/><path class="cls-4" d="M86.05,124.3l-1,5.78-3.45,3.51"/><path class="cls-4" d="M90.75,125.57c-.24,1.71-.47,3.43-.7,5.15-.82,1.13-1.64,2.27-2.45,3.41"/><path class="cls-4" d="M36.07,102l.12,3.33,3.23,3.34"/><path class="cls-4" d="M32.45,103.16c0,1.45.09,2.9.14,4.35l2.93,3.22"/><path class="cls-4" d="M28.76,105.14c.11,1.38.21,2.76.32,4.15L32,111.71"/><path class="cls-1" d="M49.25,18.91a16,16,0,0,1,5.87-15C58.93.92,65-.84,70.42,1.77a14.43,14.43,0,0,1,6.79,7.29,47.15,47.15,0,0,0-28,9.85Z"/><path id="hair" class="cls-2" d="M49.49,19.11l.85,7A5.22,5.22,0,0,1,51.19,22a3.2,3.2,0,0,1,2.17-1.34,3,3,0,0,1,2.17.76c-.05-1.68-.11-3.36-.16-5L55,14.91"/><path class="cls-1" d="M75.82,50.69q-.67-6-1.34-12.08a21.54,21.54,0,0,0,2.21-.23A4.07,4.07,0,0,0,79,37.28c1.27-1.34,1-3.46.91-4.39-.41-3.57-1.08-10.11-2.09-18.61a20.55,20.55,0,0,0-22.53,1.41c.07,1.9.14,3.79.2,5.69a3.06,3.06,0,0,0-2.17-.76A3.21,3.21,0,0,0,51.19,22c-1.67,2.17-1,6.5,1.32,8.29,1.32,1,2.15.43,3.21,1.62s.71,2,1.72,4.24a16.46,16.46,0,0,0,1.32,2.38c.2.74.4,1.6.59,2.57,1.06,5.29,1.49,7.07.89,9.13a8.31,8.31,0,0,1-.32.88A12.18,12.18,0,0,0,69.57,54,11.59,11.59,0,0,0,75.82,50.69Z"/><path class="cls-2" d="M86.62,13.45a18.9,18.9,0,0,0-7-.52,19.21,19.21,0,0,0-9.55,3.94Z"/><path class="cls-1" d="M77.21,9.06c7.88,2.92,9.66,4,9.55,4.34-.18.63-5.79-1.79-11.82.52-3.2,1.23-3.54,2.64-6.22,3.59S62,18.67,55.6,15.16a49.37,49.37,0,0,1,21.61-6.1Z"/><path class="cls-4" d="M74.48,38.61a92.12,92.12,0,0,1-12.27-.45"/><path class="cls-4" d="M68.75,21.12a2.46,2.46,0,0,1,2.59-.7,2.33,2.33,0,0,1,1.25,1.14"/><path class="cls-4" d="M65.13,26.79l4.42-1a2.2,2.2,0,0,0,1.32.26,2.26,2.26,0,0,0,1.1-.48l3.34.89"/><path class="cls-4" d="M66.81,28a14.4,14.4,0,0,0,3.07.26,14.76,14.76,0,0,0,4.28-.71"/><path class="cls-6" d="M65.5,6.87c-2.41-.24-4.34-1-4.48-2-.18-1.28,2.47-2.79,4.75-3,2.77-.28,5.13.61,5.27,2a1.55,1.55,0,0,1-.34,1.08,10.06,10.06,0,0,1-1.75,0s.24,0,.43-.19a1.06,1.06,0,0,0,.23-.84,1.68,1.68,0,0,0-1.27-1.21,5.94,5.94,0,0,0-2.78-.32c-1.89.26-4,1.55-3.85,2.6S63.4,6.67,65.5,6.87Z"/><ellipse class="cls-6" cx="65.98" cy="4.41" rx="0.82" ry="0.46" transform="translate(0.39 12.82) rotate(-11.13)"/><path class="cls-6" d="M66.57,3.74l3.2-2.26S67,3.94,67,3.93A2.68,2.68,0,0,1,66.57,3.74Z"/><path class="cls-7" d="M63.78,77.74l.91.1Z"/><path class="cls-7" d="M87,68.07s0,0,0,0Z"/><path class="cls-7" d="M81.36,67.65l0,.07"/><ellipse class="cls-8" cx="65.49" cy="69.08" rx="3.35" ry="1.88" transform="translate(-12.1 13.94) rotate(-11.13)"/><path class="cls-8" d="M80.34,66.56h0a1.52,1.52,0,0,1,0,.21,2.74,2.74,0,0,1,0,.48h0l5.83-.56a.34.34,0,0,0,0-.1,2.79,2.79,0,0,0-.13-.75Z"/><path class="cls-8" d="M86.21,67.81a5.78,5.78,0,0,0,.05-.71l-5.85.45a5.36,5.36,0,0,1,0,.55Z"/><path class="cls-8" d="M81,57.07,77.8,59.36l.5.15Z"/><path class="cls-8" d="M74.61,61.61l-6.69,4.73a16.31,16.31,0,0,0,1.65.79c.12,0,3.11-2.62,6-5.19l-.41-.13Z"/><path class="cls-8" d="M78.3,59.51l-2.72,2.43c2.42.85,4.22,2.46,4.7,4.34L86,65.47C85.15,62.87,82.31,60.78,78.3,59.51Z"/><path class="cls-8" d="M64.65,58.38c-9.38,1-20.21,7.15-19.5,12.39.56,4.06,8,7.23,17.46,8.31-8.17-1-14.23-4.27-14.62-7.92-.46-4.31,8-9.62,15.77-10.67a23.72,23.72,0,0,1,10.85,1.12l3.19-2.25A35,35,0,0,0,64.65,58.38Z"/><path class="cls-8" d="M80.08,69.28a2.88,2.88,0,0,1-.65.91,4.1,4.1,0,0,1-1.77.79c0,.12,1.65.17,7.17,0a5.84,5.84,0,0,0,.53-.8,7.73,7.73,0,0,0,.41-.81Z"/><path class="cls-8" d="M80.17,69.05,85.94,69a7.27,7.27,0,0,0,.22-.8l-5.83.26a4,4,0,0,1-.14.57"/><path d="M52,72.49v.68H51v3H50.1v-3h-1v-.68Z"/><path d="M53,73.51a1.21,1.21,0,0,1,.48.09,1,1,0,0,1,.62.61,1.6,1.6,0,0,1,.08.51v.14a.46.46,0,0,1,0,.09s0,0-.06,0h-1.6a.71.71,0,0,0,.2.47.6.6,0,0,0,.42.15.88.88,0,0,0,.24,0l.17-.07.14-.08a.35.35,0,0,1,.14,0,.15.15,0,0,1,.14.07l.23.28a1.38,1.38,0,0,1-.26.23,1.85,1.85,0,0,1-.29.13,1.09,1.09,0,0,1-.3.07l-.28,0a1.5,1.5,0,0,1-.52-.09,1.17,1.17,0,0,1-.42-.27,1.25,1.25,0,0,1-.29-.44,1.63,1.63,0,0,1-.1-.61,1.39,1.39,0,0,1,.09-.5A1.1,1.1,0,0,1,52,73.9a1.15,1.15,0,0,1,.4-.28A1.33,1.33,0,0,1,53,73.51Zm0,.55a.48.48,0,0,0-.35.12.67.67,0,0,0-.17.37h1a1.1,1.1,0,0,0,0-.18.8.8,0,0,0-.08-.16.58.58,0,0,0-.15-.11A.46.46,0,0,0,53,74.06Z"/><path d="M56.4,76.18a.32.32,0,0,1-.16,0,.24.24,0,0,1-.1-.13l0-.14L55.9,76a.93.93,0,0,1-.19.11l-.21.07-.24,0a1.14,1.14,0,0,1-.33,0,.56.56,0,0,1-.25-.14.6.6,0,0,1-.16-.22,1,1,0,0,1-.05-.32.61.61,0,0,1,.07-.28.67.67,0,0,1,.24-.27,1.58,1.58,0,0,1,.47-.2,2.69,2.69,0,0,1,.75-.08v-.12a.5.5,0,0,0-.09-.33.37.37,0,0,0-.27-.11.71.71,0,0,0-.23,0l-.16.07-.14.07a.33.33,0,0,1-.15,0,.21.21,0,0,1-.14,0,.26.26,0,0,1-.09-.09l-.14-.25a1.57,1.57,0,0,1,.53-.31,1.8,1.8,0,0,1,.62-.11,1.18,1.18,0,0,1,.43.08,1,1,0,0,1,.32.22.83.83,0,0,1,.2.32,1.16,1.16,0,0,1,.07.42v1.64Zm-.9-.48a.72.72,0,0,0,.27,0,.85.85,0,0,0,.23-.17v-.36a2.06,2.06,0,0,0-.39,0,1,1,0,0,0-.24.07.26.26,0,0,0-.12.11.28.28,0,0,0,0,.13.22.22,0,0,0,.07.19A.41.41,0,0,0,55.5,75.7Z"/><path d="M57.32,76.18V73.56h.49a.21.21,0,0,1,.12,0,.15.15,0,0,1,.07.1l0,.14.14-.13.15-.1a1.27,1.27,0,0,1,.18-.06.66.66,0,0,1,.21,0,.61.61,0,0,1,.39.13.75.75,0,0,1,.24.33.58.58,0,0,1,.16-.21.66.66,0,0,1,.2-.14,1,1,0,0,1,.24-.08,1,1,0,0,1,.24,0,1.24,1.24,0,0,1,.4.07.75.75,0,0,1,.29.2.79.79,0,0,1,.18.31,1.37,1.37,0,0,1,.06.42v1.67h-.78V74.51c0-.27-.12-.41-.35-.41a.37.37,0,0,0-.27.11.4.4,0,0,0-.1.3v1.67h-.79V74.51a.48.48,0,0,0-.08-.31.33.33,0,0,0-.26-.1.5.5,0,0,0-.21.05.7.7,0,0,0-.17.13v1.9Z"/><path d="M63.51,74.82v1.36h-.85V72.49h1.19a2.73,2.73,0,0,1,.69.08,1.65,1.65,0,0,1,.46.23,1,1,0,0,1,.26.35,1.23,1.23,0,0,1,.08.44,1.14,1.14,0,0,1,0,.33,1,1,0,0,1-.14.3,1.09,1.09,0,0,1-.24.24,1.33,1.33,0,0,1-.31.18.6.6,0,0,1,.29.26l.78,1.28H64.9a.32.32,0,0,1-.31-.16L64,75a.24.24,0,0,0-.1-.1.33.33,0,0,0-.15,0Zm0-.59h.34a.85.85,0,0,0,.3,0,.56.56,0,0,0,.2-.12.44.44,0,0,0,.12-.18.85.85,0,0,0,0-.23.46.46,0,0,0-.16-.38.72.72,0,0,0-.49-.14h-.34Z"/><path d="M67.14,73.51a1.21,1.21,0,0,1,.48.09.93.93,0,0,1,.37.23,1,1,0,0,1,.25.38,1.6,1.6,0,0,1,.08.51v.14a.46.46,0,0,1,0,.09s0,0-.06,0h-1.6a.71.71,0,0,0,.2.47.6.6,0,0,0,.42.15.88.88,0,0,0,.24,0l.17-.07.14-.08a.35.35,0,0,1,.14,0,.15.15,0,0,1,.14.07l.23.28a1.38,1.38,0,0,1-.26.23,1.85,1.85,0,0,1-.29.13,1.09,1.09,0,0,1-.3.07l-.28,0a1.5,1.5,0,0,1-.52-.09,1.17,1.17,0,0,1-.42-.27,1.25,1.25,0,0,1-.29-.44,1.63,1.63,0,0,1-.1-.61,1.39,1.39,0,0,1,.09-.5,1.1,1.1,0,0,1,.26-.41,1.15,1.15,0,0,1,.4-.28A1.33,1.33,0,0,1,67.14,73.51Zm0,.55a.48.48,0,0,0-.35.12.67.67,0,0,0-.17.37h1a1.1,1.1,0,0,0,0-.18.8.8,0,0,0-.08-.16.58.58,0,0,0-.15-.11A.46.46,0,0,0,67.16,74.06Z"/><path d="M70.12,76.18h-.71l-1-2.62h.66a.32.32,0,0,1,.14,0,.17.17,0,0,1,.07.1l.37,1.18c0,.09.06.19.08.28a2.68,2.68,0,0,1,.07.27,2.68,2.68,0,0,1,.07-.27c0-.09.05-.19.08-.28l.38-1.18a.25.25,0,0,1,.08-.1.25.25,0,0,1,.13,0h.62Z"/><path d="M72.92,76.18h-.71l-1-2.62h.66a.32.32,0,0,1,.14,0,.23.23,0,0,1,.07.1l.37,1.18c0,.09,0,.19.08.28a2.68,2.68,0,0,1,.07.27,2.61,2.61,0,0,1,.06-.27l.09-.28.38-1.18a.19.19,0,0,1,.08-.1.25.25,0,0,1,.13,0h.62Z"/><path d="M75.29,73.51a1.24,1.24,0,0,1,.48.09,1,1,0,0,1,.37.23,1,1,0,0,1,.24.38,1.36,1.36,0,0,1,.09.51.57.57,0,0,1,0,.14.2.2,0,0,1,0,.09l-.06,0h-1.6a.71.71,0,0,0,.2.47.6.6,0,0,0,.42.15.75.75,0,0,0,.23,0l.18-.07.14-.08a.32.32,0,0,1,.14,0,.15.15,0,0,1,.14.07l.23.28a1.43,1.43,0,0,1-.27.23,1.75,1.75,0,0,1-.28.13,1.09,1.09,0,0,1-.3.07l-.28,0a1.46,1.46,0,0,1-.52-.09,1.17,1.17,0,0,1-.42-.27,1.25,1.25,0,0,1-.29-.44,1.63,1.63,0,0,1-.1-.61,1.39,1.39,0,0,1,.09-.5,1.22,1.22,0,0,1,.25-.41,1.3,1.3,0,0,1,.41-.28A1.33,1.33,0,0,1,75.29,73.51Zm0,.55a.48.48,0,0,0-.35.12.67.67,0,0,0-.17.37h1a.57.57,0,0,0,0-.18.46.46,0,0,0-.07-.16.58.58,0,0,0-.15-.11A.46.46,0,0,0,75.31,74.06Z"/><path d="M78.76,76.18a.21.21,0,0,1-.12,0,.23.23,0,0,1-.07-.1l-.06-.2-.16.15-.19.12a.81.81,0,0,1-.22.07.88.88,0,0,1-.24,0,.79.79,0,0,1-.38-.09.83.83,0,0,1-.3-.26,1.14,1.14,0,0,1-.2-.43,1.89,1.89,0,0,1-.08-.56,1.63,1.63,0,0,1,.09-.55,1.34,1.34,0,0,1,.22-.43,1.06,1.06,0,0,1,.82-.4.86.86,0,0,1,.34.06,1.07,1.07,0,0,1,.25.16V72.39h.79v3.79ZM78,75.62l.15,0,.13,0a.41.41,0,0,0,.11-.07.52.52,0,0,0,.1-.11V74.26a.49.49,0,0,0-.19-.14.52.52,0,0,0-.21,0,.71.71,0,0,0-.21,0,.4.4,0,0,0-.15.14.82.82,0,0,0-.11.25,1.88,1.88,0,0,0,0,.72.56.56,0,0,0,.09.22.4.4,0,0,0,.13.13A.33.33,0,0,0,78,75.62Z"/><path d="M82.37,75.5a.94.94,0,0,0,.3,0,.72.72,0,0,0,.38-.43,1.16,1.16,0,0,0,0-.34V72.49H84v2.19a1.8,1.8,0,0,1-.11.62,1.46,1.46,0,0,1-.31.49,1.71,1.71,0,0,1-.5.32,2.07,2.07,0,0,1-1.33,0,1.54,1.54,0,0,1-.49-.32,1.34,1.34,0,0,1-.32-.49,1.8,1.8,0,0,1-.11-.62V72.49h.86v2.18a1,1,0,0,0,0,.35.72.72,0,0,0,.14.26.66.66,0,0,0,.23.17A1,1,0,0,0,82.37,75.5Z"/><path d="M84.51,77V73.56H85a.28.28,0,0,1,.13,0,.2.2,0,0,1,.07.1l0,.19a.8.8,0,0,1,.17-.15.71.71,0,0,1,.18-.12l.22-.08a1,1,0,0,1,.25,0,.83.83,0,0,1,.38.1.75.75,0,0,1,.3.26,1.17,1.17,0,0,1,.2.42,2,2,0,0,1,.07.57,1.85,1.85,0,0,1-.08.54,1.53,1.53,0,0,1-.23.44,1.21,1.21,0,0,1-.35.29,1,1,0,0,1-.46.1.91.91,0,0,1-.35-.06,1,1,0,0,1-.25-.16v1Zm1.28-2.91-.16,0-.13,0-.11.07-.1.11v1.12a.46.46,0,0,0,.19.13.54.54,0,0,0,.22,0,.45.45,0,0,0,.2,0,.43.43,0,0,0,.16-.14.67.67,0,0,0,.1-.24,1.4,1.4,0,0,0,0-.37,1.69,1.69,0,0,0,0-.35.87.87,0,0,0-.08-.23.4.4,0,0,0-.13-.13A.47.47,0,0,0,85.79,74.1Z"/></g></g></svg>